<svg width="97" height="26" viewBox="0 0 97 26" fill="none" xmlns="http://www.w3.org/2000/svg">
<rect width="97" height="26" fill="white"/>
<rect x="3" y="2" width="38" height="22" rx="6" fill="#3B1092"/>
<rect width="20" height="3" transform="translate(13 12)" fill="white"/>
<path d="M47.4 20.5V7.46H51C54.8 7.46 57.28 9.44 57.28 13.92C57.28 18.4 54.8 20.5 51.18 20.5H47.4ZM50.36 18.12H50.84C52.88 18.12 54.26 17.04 54.26 13.92C54.26 10.8 52.88 9.84 50.84 9.84H50.36V18.12ZM62.4527 20.74C60.4527 20.74 59.1927 19.42 59.1927 17.74C59.1927 15.52 61.0327 14.4 65.7327 14.12C65.6327 13.22 64.9527 12.68 63.6127 12.68C62.6527 12.68 61.7127 13.04 60.5927 13.6L59.5527 11.68C60.9127 10.9 62.4927 10.34 64.1927 10.34C66.9727 10.34 68.6727 11.78 68.6727 14.82V20.5H66.2727L66.0527 19.38H65.9727C64.9727 20.14 63.7327 20.74 62.4527 20.74ZM63.3927 18.46C64.2727 18.46 65.0327 18.06 65.7327 17.52V15.88C62.8127 16.04 62.0127 16.66 62.0127 17.52C62.0127 18.16 62.5527 18.46 63.3927 18.46ZM75.8653 20.74C74.0853 20.74 72.2653 20.06 71.0053 19.22L72.2653 17.38C73.4853 18.14 74.8453 18.56 76.2653 18.56C77.3453 18.56 77.8453 18.2 77.8453 17.72C77.8453 17.16 77.3453 16.96 75.4053 16.54C72.7053 15.96 71.6253 14.98 71.6253 13.44C71.6253 11.6 73.3653 10.34 76.1853 10.34C77.9653 10.34 79.4453 11.04 80.4853 11.7L79.1653 13.46C78.1653 12.86 77.0253 12.52 75.9253 12.52C75.0053 12.52 74.5453 12.84 74.5453 13.3C74.5453 13.86 75.1653 13.98 76.8453 14.36C79.9053 15.06 80.7453 15.92 80.7453 17.54C80.7453 19.34 79.0453 20.74 75.8653 20.74ZM83.358 20.5V6.48H86.298V9.92L86.138 11.82H86.198C86.938 11.06 87.998 10.34 89.498 10.34C91.718 10.34 92.718 11.88 92.718 14.38V20.5H89.778V14.76C89.778 13.44 89.398 12.84 88.318 12.84C87.518 12.84 86.998 13.2 86.298 13.88V20.5H83.358Z" fill="#7259A0"/>
</svg>
